<?xml version="1.0" encoding="UTF-8"?>
<svg width="44px" height="40px" viewBox="0 0 44 40" version="1.1" xmlns="http://www.w3.org/2000/svg" xmlns:xlink="http://www.w3.org/1999/xlink">
    <!-- Generator: Sketch 51.2 (57519) - http://www.bohemiancoding.com/sketch -->
    <title>Artboard</title>
    <desc>Created with Sketch.</desc>
    <defs></defs>
    <g id="Artboard" stroke="none" stroke-width="1" fill="none" fill-rule="evenodd">
        <path d="M9.0735903,0.467379386 L0.277602524,8.75890899 L9.0735903,17.0511239 L9.0735903,11.6097862 L13.2847989,11.6097862 L18.3292459,19.9833951 L13.2847989,28.4774554 L9.0735903,28.4774554 L9.0735903,23.3617935 L0.277602524,31.4630366 L9.0735903,39.4994107 L9.0735903,34.9842691 L15.567429,34.9842691 L21.8058703,24.4164611 L24.3923855,20.0349507 L29.46111,11.6097862 L34.1142054,11.6097862 L34.1142054,17.0511239 L43.7484964,8.75890899 L34.1142054,0.467379386 L34.1142054,5.12460324 L27.1360934,5.12460324 L21.3435389,14.6764079 L15.567429,5.12460324 L9.0735903,5.12460324 L9.0735903,0.467379386 Z M24.2346077,20.3630458 L29.3533671,28.4809879 L34.2266944,28.4809879 L34.2266944,23.3333333 L43.4405629,31.5789474 L34.1451104,39.4736842 L34.2266944,35.0314758 L27.415571,35.0314758 L21.3247377,25.2600156 L24.2346077,20.3630458 Z M13.2555205,28.5087719 L27.1356467,5.1754386" id="Combined-Shape" stroke="#1464A5" stroke-width="2"></path>
    </g>
</svg>